<svg width="40" height="40" viewBox="0 0 40 40" fill="none" xmlns="http://www.w3.org/2000/svg">
<path d="M14.75 29.7083L20 26.5417L25.25 29.75L23.875 23.75L28.5 19.75L22.4167 19.2083L20 13.5417L17.5833 19.1667L11.5 19.7083L16.125 23.75L14.75 29.7083ZM20 30.4583L13.0833 34.625C12.7778 34.8194 12.4583 34.9028 12.125 34.875C11.7917 34.8472 11.5 34.7361 11.25 34.5417C11 34.3472 10.8056 34.1042 10.6667 33.8125C10.5278 33.5208 10.5 33.1944 10.5833 32.8333L12.4167 24.9583L6.29167 19.6667C6.01389 19.4167 5.84028 19.1319 5.77084 18.8125C5.70139 18.4931 5.72223 18.1806 5.83334 17.875C5.94445 17.5694 6.11112 17.3194 6.33334 17.125C6.55556 16.9306 6.86112 16.8056 7.25 16.75L15.3333 16.0417L18.4583 8.625C18.5972 8.29167 18.8125 8.04167 19.1042 7.875C19.3958 7.70833 19.6944 7.625 20 7.625C20.3056 7.625 20.6042 7.70833 20.8958 7.875C21.1875 8.04167 21.4028 8.29167 21.5417 8.625L24.6667 16.0417L32.75 16.75C33.1389 16.8056 33.4444 16.9306 33.6667 17.125C33.8889 17.3194 34.0556 17.5694 34.1667 17.875C34.2778 18.1806 34.2986 18.4931 34.2292 18.8125C34.1597 19.1319 33.9861 19.4167 33.7083 19.6667L27.5833 24.9583L29.4167 32.8333C29.5 33.1944 29.4722 33.5208 29.3333 33.8125C29.1944 34.1042 29 34.3472 28.75 34.5417C28.5 34.7361 28.2083 34.8472 27.875 34.875C27.5417 34.9028 27.2222 34.8194 26.9167 34.625L20 30.4583Z" fill="white"/>
</svg>
