<svg width="56" height="56" viewBox="0 0 56 56" fill="none" xmlns="http://www.w3.org/2000/svg">
<g clip-path="url(#clip0_170_124)">
<g filter="url(#filter0_i_170_124)">
<path d="M14.1167 41.475C13.3389 41.0472 12.7361 40.4736 12.3083 39.7542C11.8806 39.0347 11.6667 38.2278 11.6667 37.3333V26.1333L6.06667 23.0417C5.6389 22.8083 5.32779 22.5167 5.13334 22.1667C4.9389 21.8167 4.84167 21.4278 4.84167 21C4.84167 20.5722 4.9389 20.1833 5.13334 19.8333C5.32779 19.4833 5.6389 19.1917 6.06667 18.9583L25.7833 8.225C26.1333 8.03055 26.4931 7.88472 26.8625 7.7875C27.232 7.69027 27.6111 7.64166 28 7.64166C28.3889 7.64166 28.7681 7.69027 29.1375 7.7875C29.507 7.88472 29.8667 8.03055 30.2167 8.225L52.4417 20.3583C52.8306 20.5528 53.132 20.8347 53.3458 21.2042C53.5597 21.5736 53.6667 21.9722 53.6667 22.4V37.3333C53.6667 37.9944 53.4431 38.5486 52.9958 38.9958C52.5486 39.4431 51.9945 39.6667 51.3333 39.6667C50.6722 39.6667 50.1181 39.4431 49.6708 38.9958C49.2236 38.5486 49 37.9944 49 37.3333V23.5667L44.3333 26.1333V37.3333C44.3333 38.2278 44.1195 39.0347 43.6917 39.7542C43.2639 40.4736 42.6611 41.0472 41.8833 41.475L30.2167 47.775C29.8667 47.9694 29.507 48.1153 29.1375 48.2125C28.7681 48.3097 28.3889 48.3583 28 48.3583C27.6111 48.3583 27.232 48.3097 26.8625 48.2125C26.4931 48.1153 26.1333 47.9694 25.7833 47.775L14.1167 41.475ZM28 29.6333L43.9833 21L28 12.3667L12.0167 21L28 29.6333ZM28 43.6917L39.6667 37.3917V28.5833L30.275 33.775C29.925 33.9694 29.5556 34.1153 29.1667 34.2125C28.7778 34.3097 28.3889 34.3583 28 34.3583C27.6111 34.3583 27.2222 34.3097 26.8333 34.2125C26.4445 34.1153 26.075 33.9694 25.725 33.775L16.3333 28.5833V37.3917L28 43.6917Z" fill="url(#paint0_linear_170_124)"/>
</g>
<path d="M13.3938 42.7893L13.3938 42.7894L13.404 42.7949L25.0632 49.0909C25.5148 49.3409 25.9878 49.5334 26.4808 49.6631C26.977 49.7937 27.4846 49.8583 28 49.8583C28.5154 49.8583 29.023 49.7937 29.5192 49.6631C30.0122 49.5334 30.4851 49.3409 30.9366 49.0909L42.5961 42.7949L42.5961 42.7949L42.6062 42.7893C43.6035 42.2408 44.4082 41.484 44.981 40.5208C45.5562 39.5534 45.8333 38.4784 45.8333 37.3333V27.0202L47.5 26.1036V37.3333C47.5 38.3722 47.8678 39.3141 48.6102 40.0565C49.3526 40.7989 50.2945 41.1667 51.3333 41.1667C52.3722 41.1667 53.3141 40.7989 54.0565 40.0565C54.7989 39.3141 55.1667 38.3722 55.1667 37.3333V22.4C55.1667 21.7089 54.9904 21.0509 54.644 20.4526C54.2854 19.8332 53.7731 19.3533 53.1395 19.0303L30.9451 6.91376C30.9434 6.9128 30.9417 6.91184 30.94 6.91088C30.4875 6.66003 30.0134 6.46693 29.5192 6.33688C29.023 6.20628 28.5154 6.14166 28 6.14166C27.4846 6.14166 26.977 6.20628 26.4808 6.33688C25.9869 6.46684 25.5132 6.65978 25.0609 6.9104L5.34949 17.6409L5.3484 17.6415C4.72564 17.9812 4.18179 18.4574 3.82211 19.1049C3.49541 19.6929 3.34167 20.3353 3.34167 21C3.34167 21.6647 3.49541 22.3071 3.82211 22.8951C4.18108 23.5413 4.7235 24.0169 5.34473 24.3565C5.34595 24.3572 5.34717 24.3578 5.3484 24.3585L10.1667 27.0186V37.3333C10.1667 38.4784 10.4439 39.5534 11.019 40.5208C11.5918 41.484 12.3965 42.2408 13.3938 42.7893ZM28 14.0715L40.8271 21L28 27.9285L15.1729 21L28 14.0715ZM38.1667 36.4969L28 41.9869L17.8333 36.4969V31.1265L24.9965 35.0862C24.997 35.0865 24.9974 35.0867 24.9979 35.087C25.4623 35.3449 25.954 35.5388 26.4695 35.6677C26.9737 35.7938 27.4847 35.8583 28 35.8583C28.5153 35.8583 29.0263 35.7938 29.5305 35.6677C30.0461 35.5388 30.5377 35.3449 31.0022 35.087C31.0026 35.0867 31.003 35.0865 31.0035 35.0862L38.1667 31.1265V36.4969Z" stroke="url(#paint1_linear_170_124)" stroke-width="3" stroke-linejoin="round"/>
</g>
<defs>
<filter id="filter0_i_170_124" x="1.84167" y="4.64166" width="54.825" height="50.7167" filterUnits="userSpaceOnUse" color-interpolation-filters="sRGB">
<feFlood flood-opacity="0" result="BackgroundImageFix"/>
<feBlend mode="normal" in="SourceGraphic" in2="BackgroundImageFix" result="shape"/>
<feColorMatrix in="SourceAlpha" type="matrix" values="0 0 0 0 0 0 0 0 0 0 0 0 0 0 0 0 0 0 127 0" result="hardAlpha"/>
<feOffset dy="4"/>
<feGaussianBlur stdDeviation="2"/>
<feComposite in2="hardAlpha" operator="arithmetic" k2="-1" k3="1"/>
<feColorMatrix type="matrix" values="0 0 0 0 0.970833 0 0 0 0 0.546094 0 0 0 0 0.800937 0 0 0 0.2 0"/>
<feBlend mode="normal" in2="shape" result="effect1_innerShadow_170_124"/>
</filter>
<linearGradient id="paint0_linear_170_124" x1="29.2542" y1="7.64166" x2="29.2542" y2="48.3583" gradientUnits="userSpaceOnUse">
<stop stop-color="#F72046"/>
<stop offset="1" stop-color="#FF007A"/>
</linearGradient>
<linearGradient id="paint1_linear_170_124" x1="29.2542" y1="7.64166" x2="29.2542" y2="48.3583" gradientUnits="userSpaceOnUse">
<stop stop-color="#F7206D" stop-opacity="0.51"/>
<stop offset="1" stop-color="#FF007A" stop-opacity="0.06"/>
</linearGradient>
<clipPath id="clip0_170_124">
<rect width="56" height="56" fill="white"/>
</clipPath>
</defs>
</svg>
