<svg width="56" height="56" viewBox="0 0 56 56" fill="none" xmlns="http://www.w3.org/2000/svg">
<g filter="url(#filter0_i_170_145)">
<path d="M28 28C25.4333 28 23.2361 27.0861 21.4083 25.2583C19.5805 23.4306 18.6666 21.2333 18.6666 18.6667C18.6666 16.1 19.5805 13.9028 21.4083 12.075C23.2361 10.2472 25.4333 9.33334 28 9.33334C30.5666 9.33334 32.7639 10.2472 34.5916 12.075C36.4194 13.9028 37.3333 16.1 37.3333 18.6667C37.3333 21.2333 36.4194 23.4306 34.5916 25.2583C32.7639 27.0861 30.5666 28 28 28ZM9.33331 42V40.1333C9.33331 38.8111 9.67359 37.5958 10.3541 36.4875C11.0347 35.3792 11.9389 34.5333 13.0666 33.95C15.4778 32.7445 17.9278 31.8403 20.4166 31.2375C22.9055 30.6347 25.4333 30.3333 28 30.3333C30.5666 30.3333 33.0944 30.6347 35.5833 31.2375C38.0722 31.8403 40.5222 32.7445 42.9333 33.95C44.0611 34.5333 44.9653 35.3792 45.6458 36.4875C46.3264 37.5958 46.6666 38.8111 46.6666 40.1333V42C46.6666 43.2833 46.2097 44.382 45.2958 45.2958C44.3819 46.2097 43.2833 46.6667 42 46.6667H14C12.7166 46.6667 11.618 46.2097 10.7041 45.2958C9.79026 44.382 9.33331 43.2833 9.33331 42ZM14 42H42V40.1333C42 39.7056 41.893 39.3167 41.6791 38.9667C41.4653 38.6167 41.1833 38.3445 40.8333 38.15C38.7333 37.1 36.6139 36.3125 34.475 35.7875C32.3361 35.2625 30.1778 35 28 35C25.8222 35 23.6639 35.2625 21.525 35.7875C19.3861 36.3125 17.2666 37.1 15.1666 38.15C14.8166 38.3445 14.5347 38.6167 14.3208 38.9667C14.1069 39.3167 14 39.7056 14 40.1333V42ZM28 23.3333C29.2833 23.3333 30.3819 22.8764 31.2958 21.9625C32.2097 21.0486 32.6666 19.95 32.6666 18.6667C32.6666 17.3833 32.2097 16.2847 31.2958 15.3708C30.3819 14.457 29.2833 14 28 14C26.7166 14 25.618 14.457 24.7041 15.3708C23.7903 16.2847 23.3333 17.3833 23.3333 18.6667C23.3333 19.95 23.7903 21.0486 24.7041 21.9625C25.618 22.8764 26.7166 23.3333 28 23.3333Z" fill="url(#paint0_linear_170_145)"/>
</g>
<path d="M12.3958 32.6084L12.3775 32.6177C11.0011 33.3296 9.89568 34.3675 9.07589 35.7026C8.24782 37.0512 7.83331 38.5389 7.83331 40.1333V42C7.83331 43.6843 8.45054 45.1636 9.64348 46.3565C10.8364 47.5495 12.3157 48.1667 14 48.1667H42C43.6843 48.1667 45.1635 47.5495 46.3565 46.3565C47.5494 45.1636 48.1666 43.6843 48.1666 42V40.1333C48.1666 38.5389 47.7521 37.0512 46.9241 35.7026C46.1043 34.3675 44.9989 33.3296 43.6224 32.6177L43.6041 32.6084C41.0971 31.3549 38.5409 30.4104 35.9364 29.7797C34.4169 29.4116 32.8832 29.151 31.3359 28.9976C32.9347 28.4878 34.3795 27.5918 35.6523 26.319C37.7591 24.2122 38.8333 21.6343 38.8333 18.6667C38.8333 15.699 37.7591 13.1212 35.6523 11.0143C33.5455 8.90751 30.9676 7.83334 28 7.83334C25.0323 7.83334 22.4545 8.90751 20.3477 11.0143C18.2408 13.1212 17.1666 15.699 17.1666 18.6667C17.1666 21.6343 18.2408 24.2122 20.3477 26.319C21.6205 27.5918 23.0653 28.4878 24.664 28.9976C23.1167 29.151 21.5831 29.4116 20.0636 29.7797C17.4591 30.4104 14.9028 31.3549 12.3958 32.6084ZM40.5 40.1333V40.5H15.5V40.1333C15.5 39.9692 15.5371 39.853 15.6007 39.7488C15.6779 39.6225 15.7656 39.5377 15.8735 39.4737C17.8683 38.4793 19.871 37.738 21.8825 37.2443C23.9057 36.7477 25.9441 36.5 28 36.5C30.0559 36.5 32.0942 36.7477 34.1174 37.2443C36.1289 37.738 38.1317 38.4794 40.1265 39.4737C40.2343 39.5377 40.322 39.6225 40.3992 39.7488C40.4629 39.853 40.5 39.9692 40.5 40.1333ZM30.2352 20.9018C29.6003 21.5367 28.8823 21.8333 28 21.8333C27.1176 21.8333 26.3996 21.5367 25.7648 20.9018C25.13 20.267 24.8333 19.549 24.8333 18.6667C24.8333 17.7843 25.13 17.0663 25.7648 16.4315C26.3996 15.7967 27.1176 15.5 28 15.5C28.8823 15.5 29.6003 15.7967 30.2352 16.4315C30.87 17.0663 31.1666 17.7843 31.1666 18.6667C31.1666 19.549 30.87 20.267 30.2352 20.9018Z" stroke="url(#paint1_linear_170_145)" stroke-width="3" stroke-linejoin="round"/>
<defs>
<filter id="filter0_i_170_145" x="6.33331" y="6.33334" width="43.3333" height="47.3333" filterUnits="userSpaceOnUse" color-interpolation-filters="sRGB">
<feFlood flood-opacity="0" result="BackgroundImageFix"/>
<feBlend mode="normal" in="SourceGraphic" in2="BackgroundImageFix" result="shape"/>
<feColorMatrix in="SourceAlpha" type="matrix" values="0 0 0 0 0 0 0 0 0 0 0 0 0 0 0 0 0 0 127 0" result="hardAlpha"/>
<feOffset dy="4"/>
<feGaussianBlur stdDeviation="2"/>
<feComposite in2="hardAlpha" operator="arithmetic" k2="-1" k3="1"/>
<feColorMatrix type="matrix" values="0 0 0 0 0.970833 0 0 0 0 0.546094 0 0 0 0 0.800937 0 0 0 0.2 0"/>
<feBlend mode="normal" in2="shape" result="effect1_innerShadow_170_145"/>
</filter>
<linearGradient id="paint0_linear_170_145" x1="28" y1="9.33334" x2="28" y2="46.6667" gradientUnits="userSpaceOnUse">
<stop stop-color="#F72046"/>
<stop offset="1" stop-color="#FF007A"/>
</linearGradient>
<linearGradient id="paint1_linear_170_145" x1="28" y1="9.33334" x2="28" y2="46.6667" gradientUnits="userSpaceOnUse">
<stop stop-color="#F7206D" stop-opacity="0.51"/>
<stop offset="1" stop-color="#FF007A" stop-opacity="0.06"/>
</linearGradient>
</defs>
</svg>
