<svg width="32" height="30" viewBox="0 0 32 30" fill="none" xmlns="http://www.w3.org/2000/svg">
<path d="M11.4878 17.6191C9.49464 17.6191 7.8078 16.9479 6.42725 15.6054C5.04669 14.263 4.35641 12.6227 4.35641 10.6846C4.35641 8.74644 5.04669 7.10615 6.42725 5.76369C7.8078 4.42123 9.49464 3.75 11.4878 3.75C13.4809 3.75 15.1677 4.42123 16.5483 5.76369C17.9288 7.10615 18.6191 8.74644 18.6191 10.6846C18.6191 11.4669 18.4911 12.2048 18.2351 12.8983C17.9791 13.5917 17.6317 14.2052 17.1928 14.7386L23.3368 20.713C23.5379 20.9086 23.6385 21.1575 23.6385 21.4598C23.6385 21.7621 23.5379 22.011 23.3368 22.2066C23.1356 22.4022 22.8796 22.5 22.5688 22.5C22.2579 22.5 22.0019 22.4022 21.8008 22.2066L15.6568 16.2322C15.1083 16.659 14.4774 16.9968 13.7643 17.2457C13.0512 17.4947 12.2923 17.6191 11.4878 17.6191ZM11.4878 15.4854C12.8592 15.4854 14.0249 15.0187 14.9849 14.0852C15.9448 13.1517 16.4248 12.0181 16.4248 10.6846C16.4248 9.351 15.9448 8.21746 14.9849 7.28396C14.0249 6.35046 12.8592 5.88371 11.4878 5.88371C10.1163 5.88371 8.95064 6.35046 7.99066 7.28396C7.03067 8.21746 6.55067 9.351 6.55067 10.6846C6.55067 12.0181 7.03067 13.1517 7.99066 14.0852C8.95064 15.0187 10.1163 15.4854 11.4878 15.4854Z" fill="white"/>
</svg>
