<svg width="46" height="47" viewBox="0 0 46 47" fill="none" xmlns="http://www.w3.org/2000/svg">
<g filter="url(#filter0_i_167_1160)">
<path d="M7.28328 39.2167C6.22912 39.2167 5.32669 38.8413 4.57599 38.0906C3.8253 37.3399 3.44995 36.4375 3.44995 35.3833V28.9146C3.44995 28.5632 3.56176 28.2597 3.78537 28.0042C4.00898 27.7486 4.29648 27.5889 4.64787 27.525C5.41453 27.2694 6.04544 26.8063 6.54058 26.1354C7.03571 25.4646 7.28328 24.7139 7.28328 23.8833C7.28328 23.0528 7.03571 22.3021 6.54058 21.6313C6.04544 20.9604 5.41453 20.4972 4.64787 20.2417C4.29648 20.1778 4.00898 20.0181 3.78537 19.7625C3.56176 19.5069 3.44995 19.2035 3.44995 18.8521V12.3833C3.44995 11.3292 3.8253 10.4267 4.57599 9.67604C5.32669 8.92535 6.22912 8.55 7.28328 8.55H37.95C39.0041 8.55 39.9065 8.92535 40.6572 9.67604C41.4079 10.4267 41.7833 11.3292 41.7833 12.3833V18.8521C41.7833 19.2035 41.6715 19.5069 41.4479 19.7625C41.2243 20.0181 40.9368 20.1778 40.5854 20.2417C39.8187 20.4972 39.1878 20.9604 38.6927 21.6313C38.1975 22.3021 37.95 23.0528 37.95 23.8833C37.95 24.7139 38.1975 25.4646 38.6927 26.1354C39.1878 26.8063 39.8187 27.2694 40.5854 27.525C40.9368 27.5889 41.2243 27.7486 41.4479 28.0042C41.6715 28.2597 41.7833 28.5632 41.7833 28.9146V35.3833C41.7833 36.4375 41.4079 37.3399 40.6572 38.0906C39.9065 38.8413 39.0041 39.2167 37.95 39.2167H7.28328ZM7.28328 35.3833H37.95V30.4958C36.768 29.7931 35.8336 28.8587 35.1468 27.6927C34.46 26.5267 34.1166 25.2569 34.1166 23.8833C34.1166 22.5097 34.46 21.2399 35.1468 20.074C35.8336 18.908 36.768 17.9736 37.95 17.2708V12.3833H7.28328V17.2708C8.46523 17.9736 9.3996 18.908 10.0864 20.074C10.7732 21.2399 11.1166 22.5097 11.1166 23.8833C11.1166 25.2569 10.7732 26.5267 10.0864 27.6927C9.3996 28.8587 8.46523 29.7931 7.28328 30.4958V35.3833ZM22.6166 33.4667C23.1597 33.4667 23.6149 33.283 23.9822 32.9156C24.3496 32.5483 24.5333 32.0931 24.5333 31.55C24.5333 31.0069 24.3496 30.5517 23.9822 30.1844C23.6149 29.817 23.1597 29.6333 22.6166 29.6333C22.0736 29.6333 21.6184 29.817 21.251 30.1844C20.8836 30.5517 20.7 31.0069 20.7 31.55C20.7 32.0931 20.8836 32.5483 21.251 32.9156C21.6184 33.283 22.0736 33.4667 22.6166 33.4667ZM22.6166 25.8C23.1597 25.8 23.6149 25.6163 23.9822 25.249C24.3496 24.8816 24.5333 24.4264 24.5333 23.8833C24.5333 23.3403 24.3496 22.8851 23.9822 22.5177C23.6149 22.1503 23.1597 21.9667 22.6166 21.9667C22.0736 21.9667 21.6184 22.1503 21.251 22.5177C20.8836 22.8851 20.7 23.3403 20.7 23.8833C20.7 24.4264 20.8836 24.8816 21.251 25.249C21.6184 25.6163 22.0736 25.8 22.6166 25.8ZM22.6166 18.1333C23.1597 18.1333 23.6149 17.9497 23.9822 17.5823C24.3496 17.2149 24.5333 16.7597 24.5333 16.2167C24.5333 15.6736 24.3496 15.2184 23.9822 14.851C23.6149 14.4837 23.1597 14.3 22.6166 14.3C22.0736 14.3 21.6184 14.4837 21.251 14.851C20.8836 15.2184 20.7 15.6736 20.7 16.2167C20.7 16.7597 20.8836 17.2149 21.251 17.5823C21.6184 17.9497 22.0736 18.1333 22.6166 18.1333Z" fill="url(#paint0_linear_167_1160)"/>
</g>
<path d="M42.5767 20.7503L41.4479 19.7625L42.5767 20.7503C43.0486 20.211 43.2833 19.553 43.2833 18.8521V12.3833C43.2833 10.9282 42.7477 9.64514 41.7179 8.61538C40.6881 7.58563 39.4051 7.05 37.95 7.05H7.28328C5.82813 7.05 4.54509 7.58563 3.51533 8.61538C2.48558 9.64514 1.94995 10.9282 1.94995 12.3833V18.8521C1.94995 19.553 2.18467 20.211 2.6565 20.7503C3.08515 21.2401 3.63422 21.5527 4.24765 21.6907C4.67783 21.849 5.03299 22.1146 5.33371 22.522C5.63925 22.936 5.78328 23.3747 5.78328 23.8833C5.78328 24.3919 5.63925 24.8307 5.33371 25.2446C5.03299 25.6521 4.67783 25.9177 4.24764 26.076C3.63422 26.214 3.08515 26.5265 2.6565 27.0164C2.18467 27.5556 1.94995 28.2137 1.94995 28.9146V35.3833C1.94995 36.8385 2.48558 38.1215 3.51533 39.1513C4.54509 40.181 5.82813 40.7167 7.28328 40.7167H37.95C39.4051 40.7167 40.6881 40.181 41.7179 39.1513C42.7477 38.1215 43.2833 36.8385 43.2833 35.3833V28.9146C43.2833 28.2137 43.0486 27.5556 42.5767 27.0164L41.4479 28.0042L42.5767 27.0164C42.1481 26.5265 41.599 26.214 40.9856 26.076C40.5554 25.9177 40.2002 25.6521 39.8995 25.2446C39.594 24.8307 39.45 24.3919 39.45 23.8833C39.45 23.3747 39.594 22.936 39.8995 22.522C40.2002 22.1146 40.5554 21.849 40.9856 21.6907C41.599 21.5527 42.1481 21.2401 42.5767 20.7503ZM36.45 31.3044V33.8833H25.1326C25.735 33.2357 26.0333 32.4283 26.0333 31.55C26.0333 30.6292 25.7055 29.7863 25.0429 29.1237C24.3804 28.4612 23.5374 28.1333 22.6166 28.1333C21.6958 28.1333 20.8529 28.4612 20.1903 29.1237C19.5278 29.7863 19.2 30.6292 19.2 31.55C19.2 32.4283 19.4982 33.2357 20.1007 33.8833H8.78328V31.3044C9.84133 30.5412 10.7104 29.5888 11.3789 28.454C12.2037 27.0537 12.6166 25.5204 12.6166 23.8833C12.6166 22.2462 12.2037 20.713 11.3789 19.3127C10.7104 18.1778 9.84133 17.2255 8.78328 16.4623V13.8833H20.1007C19.4982 14.531 19.2 15.3384 19.2 16.2167C19.2 17.1375 19.5278 17.9804 20.1903 18.643C20.8529 19.3055 21.6958 19.6333 22.6166 19.6333C23.5374 19.6333 24.3804 19.3055 25.0429 18.643C25.7055 17.9804 26.0333 17.1375 26.0333 16.2167C26.0333 15.3384 25.735 14.531 25.1326 13.8833H36.45V16.4623C35.3919 17.2255 34.5228 18.1778 33.8544 19.3127C33.0295 20.713 32.6166 22.2462 32.6166 23.8833C32.6166 25.5204 33.0295 27.0537 33.8544 28.454C34.5228 29.5888 35.3919 30.5412 36.45 31.3044ZM22.6166 27.3C23.5374 27.3 24.3804 26.9722 25.0429 26.3096C25.7055 25.6471 26.0333 24.8041 26.0333 23.8833C26.0333 22.9625 25.7055 22.1196 25.0429 21.457C24.3804 20.7945 23.5374 20.4667 22.6166 20.4667C21.6958 20.4667 20.8529 20.7945 20.1903 21.457C19.5278 22.1196 19.2 22.9625 19.2 23.8833C19.2 24.8041 19.5278 25.6471 20.1903 26.3096C20.8529 26.9722 21.6958 27.3 22.6166 27.3Z" stroke="url(#paint1_linear_167_1160)" stroke-width="3" stroke-linejoin="round"/>
<defs>
<filter id="filter0_i_167_1160" x="0.449951" y="5.55" width="44.3333" height="40.6667" filterUnits="userSpaceOnUse" color-interpolation-filters="sRGB">
<feFlood flood-opacity="0" result="BackgroundImageFix"/>
<feBlend mode="normal" in="SourceGraphic" in2="BackgroundImageFix" result="shape"/>
<feColorMatrix in="SourceAlpha" type="matrix" values="0 0 0 0 0 0 0 0 0 0 0 0 0 0 0 0 0 0 127 0" result="hardAlpha"/>
<feOffset dy="4"/>
<feGaussianBlur stdDeviation="2"/>
<feComposite in2="hardAlpha" operator="arithmetic" k2="-1" k3="1"/>
<feColorMatrix type="matrix" values="0 0 0 0 0.970833 0 0 0 0 0.546094 0 0 0 0 0.800937 0 0 0 0.2 0"/>
<feBlend mode="normal" in2="shape" result="effect1_innerShadow_167_1160"/>
</filter>
<linearGradient id="paint0_linear_167_1160" x1="22.6166" y1="8.55" x2="22.6166" y2="39.2167" gradientUnits="userSpaceOnUse">
<stop stop-color="#F72046"/>
<stop offset="1" stop-color="#FF007A"/>
</linearGradient>
<linearGradient id="paint1_linear_167_1160" x1="22.6166" y1="8.55" x2="22.6166" y2="39.2167" gradientUnits="userSpaceOnUse">
<stop stop-color="#F7206D" stop-opacity="0.51"/>
<stop offset="1" stop-color="#FF007A" stop-opacity="0.06"/>
</linearGradient>
</defs>
</svg>
