<svg width="40" height="40" viewBox="0 0 40 40" fill="none" xmlns="http://www.w3.org/2000/svg">
<path d="M10.0833 29.625C9.52776 29.3195 9.0972 28.9097 8.79165 28.3958C8.48609 27.882 8.33331 27.3056 8.33331 26.6667V18.6667L4.33331 16.4583C4.02776 16.2917 3.80554 16.0833 3.66665 15.8333C3.52776 15.5833 3.45831 15.3056 3.45831 15C3.45831 14.6945 3.52776 14.4167 3.66665 14.1667C3.80554 13.9167 4.02776 13.7083 4.33331 13.5417L18.4166 5.87501C18.6666 5.73612 18.9236 5.63195 19.1875 5.56251C19.4514 5.49307 19.7222 5.45834 20 5.45834C20.2778 5.45834 20.5486 5.49307 20.8125 5.56251C21.0764 5.63195 21.3333 5.73612 21.5833 5.87501L37.4583 14.5417C37.7361 14.6806 37.9514 14.882 38.1041 15.1458C38.2569 15.4097 38.3333 15.6945 38.3333 16V26.6667C38.3333 27.1389 38.1736 27.5347 37.8541 27.8542C37.5347 28.1736 37.1389 28.3333 36.6666 28.3333C36.1944 28.3333 35.7986 28.1736 35.4791 27.8542C35.1597 27.5347 35 27.1389 35 26.6667V16.8333L31.6666 18.6667V26.6667C31.6666 27.3056 31.5139 27.882 31.2083 28.3958C30.9028 28.9097 30.4722 29.3195 29.9166 29.625L21.5833 34.125C21.3333 34.2639 21.0764 34.3681 20.8125 34.4375C20.5486 34.507 20.2778 34.5417 20 34.5417C19.7222 34.5417 19.4514 34.507 19.1875 34.4375C18.9236 34.3681 18.6666 34.2639 18.4166 34.125L10.0833 29.625ZM20 21.1667L31.4166 15L20 8.83334L8.58331 15L20 21.1667ZM20 31.2083L28.3333 26.7083V20.4167L21.625 24.125C21.375 24.2639 21.1111 24.3681 20.8333 24.4375C20.5555 24.507 20.2778 24.5417 20 24.5417C19.7222 24.5417 19.4444 24.507 19.1666 24.4375C18.8889 24.3681 18.625 24.2639 18.375 24.125L11.6666 20.4167V26.7083L20 31.2083Z" fill="white"/>
</svg>
