<svg width="56" height="56" viewBox="0 0 56 56" fill="none" xmlns="http://www.w3.org/2000/svg">
    <g filter="url(#filter0_i_150_236)">
        <path
            d="M14 44.3333H21V32.6667C21 32.0055 21.2236 31.4514 21.6708 31.0042C22.1181 30.5569 22.6722 30.3333 23.3333 30.3333H32.6667C33.3278 30.3333 33.8819 30.5569 34.3292 31.0042C34.7764 31.4514 35 32.0055 35 32.6667V44.3333H42V23.3333L28 12.8333L14 23.3333V44.3333ZM9.33333 44.3333V23.3333C9.33333 22.5944 9.49861 21.8944 9.82917 21.2333C10.1597 20.5722 10.6167 20.0278 11.2 19.6L25.2 9.09999C26.0167 8.47777 26.95 8.16666 28 8.16666C29.05 8.16666 29.9833 8.47777 30.8 9.09999L44.8 19.6C45.3833 20.0278 45.8403 20.5722 46.1708 21.2333C46.5014 21.8944 46.6667 22.5944 46.6667 23.3333V44.3333C46.6667 45.6167 46.2097 46.7153 45.2958 47.6292C44.3819 48.543 43.2833 49 42 49H32.6667C32.0056 49 31.4514 48.7764 31.0042 48.3292C30.5569 47.8819 30.3333 47.3278 30.3333 46.6667V35H25.6667V46.6667C25.6667 47.3278 25.4431 47.8819 24.9958 48.3292C24.5486 48.7764 23.9944 49 23.3333 49H14C12.7167 49 11.6181 48.543 10.7042 47.6292C9.79028 46.7153 9.33333 45.6167 9.33333 44.3333Z"
            fill="url(#paint0_linear_150_236)" />
    </g>
    <path
        d="M19.5 32.6667V42.8333H15.5V24.0833L28 14.7083L40.5 24.0833V42.8333H36.5V32.6667C36.5 31.6278 36.1322 30.6859 35.3898 29.9435C34.6474 29.2011 33.7055 28.8333 32.6667 28.8333H23.3333C22.2945 28.8333 21.3526 29.2011 20.6102 29.9435C19.8678 30.6859 19.5 31.6278 19.5 32.6667ZM7.83333 23.3333V44.3333C7.83333 46.0176 8.45056 47.4969 9.64351 48.6898C10.8365 49.8828 12.3157 50.5 14 50.5H23.3333C24.3722 50.5 25.3141 50.1322 26.0565 49.3898C26.7989 48.6474 27.1667 47.7055 27.1667 46.6667V36.5H28.8333V46.6667C28.8333 47.7055 29.2011 48.6474 29.9435 49.3898C30.6859 50.1322 31.6278 50.5 32.6667 50.5H42C43.6843 50.5 45.1635 49.8828 46.3565 48.6898C47.5494 47.4969 48.1667 46.0176 48.1667 44.3333V23.3333C48.1667 22.3615 47.9471 21.4318 47.5125 20.5625C47.0791 19.6957 46.4705 18.9667 45.6941 18.3956L31.7091 7.90684C31.7074 7.90561 31.7058 7.90438 31.7042 7.90315C30.6211 7.07952 29.3684 6.66666 28 6.66666C26.6316 6.66666 25.3789 7.07954 24.2957 7.90321L10.306 18.3955C9.52952 18.9666 8.92096 19.6956 8.48753 20.5625C8.05287 21.4318 7.83333 22.3615 7.83333 23.3333Z"
        stroke="url(#paint1_linear_150_236)" stroke-width="3" stroke-linejoin="round" />
    <defs>
        <filter id="filter0_i_150_236" x="6.33333" y="5.16666" width="43.3333" height="50.8333"
            filterUnits="userSpaceOnUse" color-interpolation-filters="sRGB">
            <feFlood flood-opacity="0" result="BackgroundImageFix" />
            <feBlend mode="normal" in="SourceGraphic" in2="BackgroundImageFix" result="shape" />
            <feColorMatrix in="SourceAlpha" type="matrix"
                values="0 0 0 0 0 0 0 0 0 0 0 0 0 0 0 0 0 0 127 0" result="hardAlpha" />
            <feOffset dy="4" />
            <feGaussianBlur stdDeviation="2" />
            <feComposite in2="hardAlpha" operator="arithmetic" k2="-1" k3="1" />
            <feColorMatrix type="matrix"
                values="0 0 0 0 0.970833 0 0 0 0 0.546094 0 0 0 0 0.800937 0 0 0 0.2 0" />
            <feBlend mode="normal" in2="shape" result="effect1_innerShadow_150_236" />
        </filter>
        <linearGradient id="paint0_linear_150_236" x1="28" y1="8.16666" x2="28" y2="49"
            gradientUnits="userSpaceOnUse">
            <stop stop-color="#F72046" />
            <stop offset="1" stop-color="#FF007A" />
        </linearGradient>
        <linearGradient id="paint1_linear_150_236" x1="28" y1="8.16666" x2="28" y2="49"
            gradientUnits="userSpaceOnUse">
            <stop stop-color="#F7206D" stop-opacity="0.51" />
            <stop offset="1" stop-color="#FF007A" stop-opacity="0.06" />
        </linearGradient>
    </defs>
</svg>